<?xml version="1.0" encoding="UTF-8"?>
<svg width="18px" height="18px" viewBox="0 0 18 18" version="1.1" xmlns="http://www.w3.org/2000/svg" xmlns:xlink="http://www.w3.org/1999/xlink">
    <!-- Generator: Sketch 52.4 (67378) - http://www.bohemiancoding.com/sketch -->
    <title>clear</title>
    <desc>Created with Sketch.</desc>
    <g id="Page-1" stroke="none" stroke-width="1" fill="none" fill-rule="evenodd">
        <path d="M9,0 C4.02822581,0 0,4.02822581 0,9 C0,13.9717742 4.02822581,18 9,18 C13.9717742,18 18,13.9717742 18,9 C18,4.02822581 13.9717742,0 9,0 Z M9,17 C4.6037037,17 1,13.4407407 1,9 C1,4.6037037 4.55925926,1 9,1 C13.3962963,1 17,4.55925926 17,9 C17,13.3962963 13.4407407,17 9,17 Z M12.4744989,6.63318688 L10.0076796,9.1000061 L12.4744989,11.5668253 C12.6418012,11.7341276 12.6418012,12.004659 12.4744989,12.1719614 L12.1719308,12.4745294 C12.0046285,12.6418317 11.7340971,12.6418317 11.5667948,12.4745294 L9.09997559,10.0077101 L6.63315636,12.4745294 C6.46585405,12.6418317 6.19532265,12.6418317 6.02802034,12.4745294 L5.72545232,12.1719614 C5.55815001,12.004659 5.55815001,11.7341276 5.72545232,11.5668253 L8.19227154,9.1000061 L5.72545232,6.63318688 C5.55815001,6.46588457 5.55815001,6.19535317 5.72545232,6.02805085 L6.02802034,5.72548284 C6.19532265,5.55818053 6.46585405,5.55818053 6.63315636,5.72548284 L9.09997559,8.19230206 L11.5667948,5.72548284 C11.7340971,5.55818053 12.0046285,5.55818053 12.1719308,5.72548284 L12.4744989,6.02805085 C12.6382415,6.19535317 12.6382415,6.46588457 12.4744989,6.63318688 Z" id="clear" fill="#FFFFFF" fill-rule="nonzero"></path>
    </g>
</svg>